Its.Kind.of.a.Funny.Story.2010.720p.BRRiP.x264.ogg.mkv-anoXmous

Format                           : Matroska
File size                        : 698 MiB
Duration                         : 1h 41mn
Overall bit rate                 : 964 Kbps
Writing application              : mkvmerge v4.8.0 ('I Got The...') 
Writing library                  : libebml v1.2.0 + libmatroska v1.1.0

Video
ID                               : 1
Format                           : AVC
Format/Info                      : Advanced Video Codec
Format profile                   : High@L4.1
Format settings, CABAC           : Yes
Format settings, ReFrames        : 4 frames
Format settings, GOP             : M=4, N=25
Codec ID                         : V_MPEG4/ISO/AVC
Duration                         : 1h 41mn
Bit rate                         : 903 Kbps
Width                            : 1 280 pixels
Height                           : 688 pixels
Display aspect ratio             : 1.860
Frame rate                       : 23.976 fps
Color space                      : YUV
Chroma subsampling               : 4:2:0
Bit depth                        : 8 bits
Scan type                        : Progressive
Bits/(Pixel*Frame)               : 0.043
Stream size                      : 638 MiB (91%)
Writing library                  : x264 core 115 r1995 c1e60b9
Encoding settings                : cabac=1 / ref=3 / deblock=1:0:0 / analyse=0x3:0x113 

Audio
ID                               : 2
Format                           : Vorbis
Format settings, Floor           : 1
Codec ID                         : A_VORBIS
Duration                         : 1h 41mn
Bit rate mode                    : Constant
Bit rate                         : 64.0 Kbps
Channel(s)                       : 2 channels
Sampling rate                    : 48.0 KHz
Compression mode                 : Lossy
Stream size                      : 46.4 MiB (7%)
Writing library                  : aoTuV 20110424 
Language                         : English

Text #1

Format                           : UTF-8
Codec ID                         : S_TEXT/UTF8
Codec ID/Info                    : UTF-8 Plain Text
Language                         : English

Text #2

Format                           : UTF-8
Codec ID                         : S_TEXT/UTF8
Codec ID/Info                    : UTF-8 Plain Text
Language                         : Swedish

Menu
00:00:00.000                     : en:00:00:00.000
00:02:51.546                     : en:00:02:51.546
00:08:00.939                     : en:00:08:00.939
00:12:53.564                     : en:00:12:53.564
00:17:00.519                     : en:00:17:00.519
00:22:46.615                     : en:00:22:46.615
00:28:57.235                     : en:00:28:57.235
00:35:44.059                     : en:00:35:44.059
00:39:25.947                     : en:00:39:25.947
00:43:10.546                     : en:00:43:10.546
00:46:15.356                     : en:00:46:15.356
00:52:51.251                     : en:00:52:51.251
00:56:39.229                     : en:00:56:39.229
01:02:18.360                     : en:01:02:18.360
01:09:45.890                     : en:01:09:45.890
01:15:54.049                     : en:01:15:54.049
01:20:13.142                     : en:01:20:13.142
01:26:45.867                     : en:01:26:45.867
01:33:02.702                     : en:01:33:02.702
01:35:09.579                     : en:01:35:09.579
 
http://www.imdb.com/title/tt0804497/